<?xml version="1.0" encoding="UTF-8"?>
<svg version="1.1" viewBox="0 0 200 200" xmlns="http://www.w3.org/2000/svg">
<rect width="200" height="200" fill="#f5f5f5"/>
<g transform="matrix(6.0675 0 0 6.0675 20.485 143.14)" fill="#1e2021">
<path d="m8.87 0-2.51-5.02h-1.86v5.02h-3.43v-14.22h5.6q2.53 0 3.96 1.12 1.42 1.13 1.42 3.18 0 1.48-0.6 2.46t-1.88 1.58l2.97 5.73v0.15h-3.67zm-4.37-11.57v3.9h2.17q0.98 0 1.47-0.51t0.49-1.43-0.5-1.44q-0.49-0.52-1.46-0.52h-2.17zm15.39 11.57h-5.77v-14.22h5.11q2.74 0 4.17 1.01 1.43 1 1.43 2.92 0 1.1-0.5 1.88-0.51 0.78-1.5 1.15 1.12 0.3 1.71 1.1 0.6 0.8 0.6 1.95 0 2.09-1.33 3.14-1.32 1.05-3.92 1.07zm0.06-6.04h-2.4v3.4h2.24q0.93 0 1.43-0.42 0.5-0.43 0.5-1.2 0-1.78-1.77-1.78zm-2.4-5.53v3.28h1.79q1.12-0.01 1.6-0.41t0.48-1.18q0-0.9-0.52-1.3-0.52-0.39-1.67-0.39h-1.68z"/>
</g>
</svg>
